<mxfile host="Electron" agent="Mozilla/5.0 (Windows NT 10.0; Win64; x64) AppleWebKit/537.36 (KHTML, like Gecko) draw.io/25.0.2 Chrome/128.0.6613.186 Electron/32.2.5 Safari/537.36" version="25.0.2">
  <diagram name="Страница — 1" id="zKRA6_4BBeHPuZL25scM">
    <mxGraphModel dx="1434" dy="844" grid="1" gridSize="10" guides="1" tooltips="1" connect="1" arrows="1" fold="1" page="1" pageScale="1" pageWidth="1000" pageHeight="700" math="0" shadow="0">
      <root>
        <mxCell id="0" />
        <mxCell id="1" parent="0" />
        <mxCell id="M6oTNt7At_c0tSbvD8fa-1" value="&lt;font style=&quot;font-size: 14px;&quot;&gt;Администатор системы&lt;/font&gt;" style="shape=umlActor;verticalLabelPosition=bottom;verticalAlign=top;html=1;outlineConnect=0;" vertex="1" parent="1">
          <mxGeometry x="240" y="340" width="50" height="130" as="geometry" />
        </mxCell>
        <mxCell id="M6oTNt7At_c0tSbvD8fa-4" value="&lt;span style=&quot;font-size: 14px;&quot;&gt;Специалист по займам&lt;/span&gt;" style="shape=umlActor;verticalLabelPosition=bottom;verticalAlign=top;html=1;outlineConnect=0;" vertex="1" parent="1">
          <mxGeometry x="710" y="340" width="50" height="130" as="geometry" />
        </mxCell>
        <mxCell id="M6oTNt7At_c0tSbvD8fa-5" value="&lt;font style=&quot;font-size: 14px;&quot;&gt;Бухгалтер&lt;/font&gt;" style="shape=umlActor;verticalLabelPosition=bottom;verticalAlign=top;html=1;outlineConnect=0;" vertex="1" parent="1">
          <mxGeometry x="240" y="680" width="50" height="130" as="geometry" />
        </mxCell>
        <mxCell id="M6oTNt7At_c0tSbvD8fa-8" value="&lt;span style=&quot;font-size: 14px;&quot;&gt;Менеджер по рискам&lt;/span&gt;" style="shape=umlActor;verticalLabelPosition=bottom;verticalAlign=top;html=1;outlineConnect=0;" vertex="1" parent="1">
          <mxGeometry x="710" y="680" width="50" height="130" as="geometry" />
        </mxCell>
        <mxCell id="M6oTNt7At_c0tSbvD8fa-10" value="" style="rounded=1;whiteSpace=wrap;html=1;" vertex="1" parent="1">
          <mxGeometry x="360" y="270" width="280" height="640" as="geometry" />
        </mxCell>
        <mxCell id="M6oTNt7At_c0tSbvD8fa-12" value="&lt;font style=&quot;font-size: 14px;&quot;&gt;Настройка системы&lt;/font&gt;" style="ellipse;whiteSpace=wrap;html=1;" vertex="1" parent="1">
          <mxGeometry x="440" y="400" width="120" height="80" as="geometry" />
        </mxCell>
        <mxCell id="M6oTNt7At_c0tSbvD8fa-29" style="edgeStyle=orthogonalEdgeStyle;rounded=0;orthogonalLoop=1;jettySize=auto;html=1;exitX=1;exitY=0.5;exitDx=0;exitDy=0;" edge="1" parent="1" source="M6oTNt7At_c0tSbvD8fa-14" target="M6oTNt7At_c0tSbvD8fa-10">
          <mxGeometry relative="1" as="geometry" />
        </mxCell>
        <mxCell id="M6oTNt7At_c0tSbvD8fa-14" value="&lt;font style=&quot;font-size: 14px;&quot;&gt;Работа с клиентами&lt;/font&gt;" style="ellipse;whiteSpace=wrap;html=1;" vertex="1" parent="1">
          <mxGeometry x="440" y="530" width="120" height="80" as="geometry" />
        </mxCell>
        <mxCell id="M6oTNt7At_c0tSbvD8fa-15" value="&lt;font style=&quot;font-size: 14px;&quot;&gt;Формирование отчетов&lt;/font&gt;" style="ellipse;whiteSpace=wrap;html=1;" vertex="1" parent="1">
          <mxGeometry x="440" y="660" width="120" height="80" as="geometry" />
        </mxCell>
        <mxCell id="M6oTNt7At_c0tSbvD8fa-16" value="&lt;font style=&quot;font-size: 14px;&quot;&gt;Формирование отчета по рискам&lt;/font&gt;" style="ellipse;whiteSpace=wrap;html=1;" vertex="1" parent="1">
          <mxGeometry x="440" y="785" width="120" height="80" as="geometry" />
        </mxCell>
        <mxCell id="M6oTNt7At_c0tSbvD8fa-18" value="&lt;span style=&quot;font-size: 14px;&quot;&gt;Клиент&lt;/span&gt;" style="shape=umlActor;verticalLabelPosition=bottom;verticalAlign=top;html=1;outlineConnect=0;" vertex="1" parent="1">
          <mxGeometry x="470" y="50" width="50" height="130" as="geometry" />
        </mxCell>
        <mxCell id="M6oTNt7At_c0tSbvD8fa-19" value="&lt;font style=&quot;font-size: 14px;&quot;&gt;Просмотр информации о займе&lt;/font&gt;" style="ellipse;whiteSpace=wrap;html=1;" vertex="1" parent="1">
          <mxGeometry x="440" y="290" width="120" height="80" as="geometry" />
        </mxCell>
        <mxCell id="M6oTNt7At_c0tSbvD8fa-24" value="" style="endArrow=classic;html=1;rounded=0;entryX=0.5;entryY=0;entryDx=0;entryDy=0;" edge="1" parent="1" target="M6oTNt7At_c0tSbvD8fa-19">
          <mxGeometry width="50" height="50" relative="1" as="geometry">
            <mxPoint x="500" y="210" as="sourcePoint" />
            <mxPoint x="550" y="250" as="targetPoint" />
          </mxGeometry>
        </mxCell>
        <mxCell id="M6oTNt7At_c0tSbvD8fa-25" value="" style="endArrow=classic;html=1;rounded=0;entryX=0;entryY=0.5;entryDx=0;entryDy=0;" edge="1" parent="1" target="M6oTNt7At_c0tSbvD8fa-12">
          <mxGeometry width="50" height="50" relative="1" as="geometry">
            <mxPoint x="290" y="440" as="sourcePoint" />
            <mxPoint x="340" y="390" as="targetPoint" />
          </mxGeometry>
        </mxCell>
        <mxCell id="M6oTNt7At_c0tSbvD8fa-26" value="" style="endArrow=classic;html=1;rounded=0;entryX=1;entryY=0.5;entryDx=0;entryDy=0;" edge="1" parent="1" target="M6oTNt7At_c0tSbvD8fa-14">
          <mxGeometry width="50" height="50" relative="1" as="geometry">
            <mxPoint x="720" y="500" as="sourcePoint" />
            <mxPoint x="690" y="450" as="targetPoint" />
          </mxGeometry>
        </mxCell>
        <mxCell id="M6oTNt7At_c0tSbvD8fa-27" value="" style="endArrow=classic;html=1;rounded=0;entryX=0;entryY=0.5;entryDx=0;entryDy=0;" edge="1" parent="1" target="M6oTNt7At_c0tSbvD8fa-15">
          <mxGeometry width="50" height="50" relative="1" as="geometry">
            <mxPoint x="290" y="780" as="sourcePoint" />
            <mxPoint x="340" y="730" as="targetPoint" />
          </mxGeometry>
        </mxCell>
        <mxCell id="M6oTNt7At_c0tSbvD8fa-28" value="" style="endArrow=classic;html=1;rounded=0;entryX=1;entryY=0.5;entryDx=0;entryDy=0;" edge="1" parent="1" source="M6oTNt7At_c0tSbvD8fa-8" target="M6oTNt7At_c0tSbvD8fa-16">
          <mxGeometry width="50" height="50" relative="1" as="geometry">
            <mxPoint x="670" y="790" as="sourcePoint" />
            <mxPoint x="720" y="740" as="targetPoint" />
          </mxGeometry>
        </mxCell>
      </root>
    </mxGraphModel>
  </diagram>
</mxfile>
